<?xml version="1.0" encoding="UTF-8" standalone="no"?>
<!-- Created with Inkscape (http://www.inkscape.org/) -->

<svg
   xmlns:dc="http://purl.org/dc/elements/1.1/"
   xmlns:cc="http://creativecommons.org/ns#"
   xmlns:rdf="http://www.w3.org/1999/02/22-rdf-syntax-ns#"
   xmlns:svg="http://www.w3.org/2000/svg"
   xmlns="http://www.w3.org/2000/svg"
   xmlns:sodipodi="http://sodipodi.sourceforge.net/DTD/sodipodi-0.dtd"
   xmlns:inkscape="http://www.inkscape.org/namespaces/inkscape"
   width="297mm"
   height="210mm"
   viewBox="0 0 297 210"
   version="1.1"
   id="svg59"
   inkscape:version="0.92.5 (2060ec1f9f, 2020-04-08)"
   sodipodi:docname="cottone.svg">
  <defs
     id="defs53" />
  <sodipodi:namedview
     id="base"
     pagecolor="#ffffff"
     bordercolor="#666666"
     borderopacity="1.0"
     inkscape:pageopacity="0.0"
     inkscape:pageshadow="2"
     inkscape:zoom="0.5"
     inkscape:cx="807.64009"
     inkscape:cy="313.51513"
     inkscape:document-units="mm"
     inkscape:current-layer="layer1"
     showgrid="true"
     showguides="true"
     inkscape:object-nodes="false"
     inkscape:window-width="1920"
     inkscape:window-height="1024"
     inkscape:window-x="1920"
     inkscape:window-y="0"
     inkscape:window-maximized="1">
    <inkscape:grid
       type="xygrid"
       id="grid61" />
  </sodipodi:namedview>
  <metadata
     id="metadata56">
    <rdf:RDF>
      <cc:Work
         rdf:about="">
        <dc:format>image/svg+xml</dc:format>
        <dc:type
           rdf:resource="http://purl.org/dc/dcmitype/StillImage" />
        <dc:title></dc:title>
      </cc:Work>
    </rdf:RDF>
  </metadata>
  <g
     inkscape:label="Layer 1"
     inkscape:groupmode="layer"
     id="layer1"
     style="display:inline"
     transform="translate(0,-87)">
    <g
       id="g5004"
       transform="matrix(4.0629911,0,0,4.0629911,-162.23088,-251.60655)">
      <path
         inkscape:connector-curvature="0"
         id="path63"
         d="m 64.822915,90.625 v 37.04167"
         style="fill:#00b800;fill-opacity:1;stroke:#00a800;stroke-width:3;stroke-linecap:round;stroke-linejoin:miter;stroke-miterlimit:4;stroke-dasharray:none;stroke-opacity:1" />
      <path
         inkscape:connector-curvature="0"
         id="path63-6"
         d="m 78.052083,90.625 v 37.04167"
         style="fill:#00b800;fill-opacity:1;stroke:#9f3b00;stroke-width:3;stroke-linecap:round;stroke-linejoin:miter;stroke-miterlimit:4;stroke-dasharray:none;stroke-opacity:1" />
      <path
         inkscape:connector-curvature="0"
         id="path63-6-7"
         d="M 89.958333,115.76041 H 52.916667"
         style="fill:#00b800;fill-opacity:1;stroke:#9f3b00;stroke-width:3;stroke-linecap:round;stroke-linejoin:miter;stroke-miterlimit:4;stroke-dasharray:none;stroke-opacity:1" />
      <path
         inkscape:connector-curvature="0"
         id="path63-5"
         d="M 89.958333,102.53125 H 52.916667"
         style="fill:#00b800;fill-opacity:1;stroke:#00a800;stroke-width:3;stroke-linecap:round;stroke-linejoin:miter;stroke-miterlimit:4;stroke-dasharray:none;stroke-opacity:1" />
      <ellipse
         inkscape:transform-center-y="0.038757324"
         inkscape:transform-center-x="-0.012919108"
         ry="3.5091918"
         rx="3.5092332"
         transform="matrix(0.64432825,-0.76474905,0.76470374,0.64438202,0,0)"
         cy="106.34939"
         cx="-35.861931"
         id="path932"
         style="fill:#00b800;fill-opacity:1;stroke:#9f3b00;stroke-width:2.99981356;stroke-miterlimit:4;stroke-dasharray:none;stroke-opacity:1" />
      <ellipse
         ry="3.5000904"
         rx="3.5000906"
         cy="122.37475"
         cx="84.666687"
         id="path932-2"
         style="fill:#a64200;fill-opacity:1;stroke:#00b800;stroke-width:2.99981928;stroke-miterlimit:4;stroke-dasharray:none;stroke-opacity:1" />
      <path
         inkscape:transform-center-y="-0.005905878"
         inkscape:transform-center-x="0.014764695"
         inkscape:connector-curvature="0"
         id="path63-9"
         d="m 91.266347,118.88909 v 6.95788"
         style="fill:#00b800;fill-opacity:1;stroke:#00a800;stroke-width:2.99970031;stroke-linecap:round;stroke-linejoin:miter;stroke-miterlimit:4;stroke-dasharray:none;stroke-opacity:1" />
      <path
         inkscape:transform-center-y="0.10456529"
         inkscape:transform-center-x="0.023947245"
         inkscape:connector-curvature="0"
         id="path63-9-1"
         d="m 98.326121,118.90984 v 6.95788"
         style="fill:#00b800;fill-opacity:1;stroke:#00a800;stroke-width:3;stroke-linecap:round;stroke-linejoin:miter;stroke-miterlimit:4;stroke-dasharray:none;stroke-opacity:1" />
      <path
         inkscape:connector-curvature="0"
         id="path63-9-2"
         d="m 91.289976,118.93983 6.970099,6.9701"
         style="fill:#00b800;fill-opacity:1;stroke:#00a800;stroke-width:2.99960518;stroke-linecap:round;stroke-linejoin:miter;stroke-miterlimit:4;stroke-dasharray:none;stroke-opacity:1" />
      <path
         inkscape:connector-curvature="0"
         transform="scale(0.26458333)"
         id="path4880"
         d="m 175.98633,356.33203 c 0.003,0.004 0.006,0.008 0.01,0.0117 h 0.01 l -0.0156,-0.0156 z"
         style="color:#000000;font-style:normal;font-variant:normal;font-weight:normal;font-stretch:normal;font-size:medium;line-height:normal;font-family:sans-serif;font-variant-ligatures:normal;font-variant-position:normal;font-variant-caps:normal;font-variant-numeric:normal;font-variant-alternates:normal;font-feature-settings:normal;text-indent:0;text-align:start;text-decoration:none;text-decoration-line:none;text-decoration-style:solid;text-decoration-color:#000000;letter-spacing:normal;word-spacing:normal;text-transform:none;writing-mode:lr-tb;direction:ltr;text-orientation:mixed;dominant-baseline:auto;baseline-shift:baseline;text-anchor:start;white-space:normal;shape-padding:0;clip-rule:nonzero;display:inline;overflow:visible;visibility:visible;opacity:1;isolation:auto;mix-blend-mode:normal;color-interpolation:sRGB;color-interpolation-filters:linearRGB;solid-color:#000000;solid-opacity:1;vector-effect:none;fill:#9f3b00;fill-opacity:1;fill-rule:nonzero;stroke:none;stroke-width:11.33787823;stroke-linecap:butt;stroke-linejoin:miter;stroke-miterlimit:4;stroke-dasharray:none;stroke-dashoffset:0;stroke-opacity:1;color-rendering:auto;image-rendering:auto;shape-rendering:auto;text-rendering:auto;enable-background:accumulate" />
      <path
         inkscape:connector-curvature="0"
         id="path932-7"
         d="m 48.916519,90.989815 c -0.160721,-0.0016 -0.321587,0.0044 -0.481623,0.0181 -1.280293,0.109019 -2.519429,0.70235 -3.40496,1.753381 -1.771063,2.102059 -1.49887,5.288301 0.603065,7.059517 2.040879,1.719757 5.091689,1.496887 6.888982,-0.440801 a 1.517975,1.4825341 44.661614 0 0 0.05116,-0.06976 1.517975,1.4825341 44.661614 0 0 0.07545,-0.12764 1.517975,1.4825341 44.661614 0 0 0.06201,-0.134877 1.517975,1.4825341 44.661614 0 1 0,-5.29e-4 1.517975,1.4825341 44.661614 0 0 0.04806,-0.14056 1.517975,1.4825341 44.661614 0 1 0,-5.29e-4 1.517975,1.4825341 44.661614 0 0 0.03359,-0.145211 1.517975,1.4825341 44.661614 0 0 0.01913,-0.147794 1.517975,1.4825341 44.661614 0 0 0.0036,-0.149863 1.517975,1.4825341 44.661614 0 0 -0.01085,-0.149862 1.517975,1.4825341 44.661614 0 0 -0.02635,-0.14831 1.517975,1.4825341 44.661614 0 0 -0.04082,-0.145211 1.517975,1.4825341 44.661614 0 0 -0.05478,-0.141076 1.517975,1.4825341 44.661614 0 0 -0.06821,-0.134876 1.517975,1.4825341 44.661614 0 0 -0.08165,-0.127641 1.517975,1.4825341 44.661614 0 0 -0.09354,-0.119372 1.517975,1.4825341 44.661614 0 0 -0.02532,-0.02635 l -0.07131,-0.06873 c -0.239403,-0.230849 -0.537083,-0.373833 -0.875916,-0.421164 -0.0843,-0.01175 -0.314788,-0.01035 -0.39946,0.0026 -0.330555,0.05056 -0.613831,0.194403 -0.848527,0.430464 l -0.05839,0.05891 h 0.0011 l -0.0011,0.0011 -5.3e-4,-5.29e-4 c -0.73869,0.651407 -1.812305,0.711237 -2.593123,0.05323 -0.862168,-0.726508 -0.968324,-1.969616 -0.241847,-2.831867 0.726477,-0.86225 1.96815,-0.966806 2.830319,-0.240294 0.0042,0.0032 0.0065,0.0082 0.0098,0.01241 l 0.0011,-0.0011 0.0041,0.0041 h 0.0021 l 0.04496,0.04547 c 0.0275,0.02752 0.06905,0.06612 0.09199,0.08578 0.240752,0.206311 0.542694,0.332115 0.865579,0.360185 0.0694,0.006 0.24272,0.0016 0.31316,-0.0078 0.273775,-0.03647 0.5236,-0.139449 0.736905,-0.303858 0.05498,-0.04238 0.144401,-0.123248 0.175702,-0.158647 l 0.02326,-0.02585 h -0.0011 a 1.50015,1.50015 0 0 0 0.05064,-0.05736 1.50015,1.50015 0 0 0 0.08681,-0.121957 1.50015,1.50015 0 0 0 0.07493,-0.130225 1.50015,1.50015 0 0 1 0,-5.29e-4 1.50015,1.50015 0 0 0 0.06098,-0.136943 1.50015,1.50015 0 0 0 0.04754,-0.142111 1.50015,1.50015 0 0 0 0.03256,-0.146243 1.50015,1.50015 0 0 0 0.0181,-0.148312 1.50015,1.50015 0 0 1 0,-5.29e-4 1.50015,1.50015 0 0 0 0.0031,-0.149863 1.50015,1.50015 0 0 0 -0.01188,-0.149344 1.50015,1.50015 0 0 0 -0.02687,-0.147796 1.50015,1.50015 0 0 0 -0.04134,-0.144177 1.50015,1.50015 0 0 0 -0.05581,-0.139009 1.50015,1.50015 0 0 0 -0.05219,-0.10077 C 52.439013,92.550147 52.294881,92.33412 52.087971,92.159765 51.168375,91.384867 50.041642,91.00071 48.916588,90.989812 Z"
         style="color:#000000;font-style:normal;font-variant:normal;font-weight:normal;font-stretch:normal;font-size:medium;line-height:normal;font-family:sans-serif;font-variant-ligatures:normal;font-variant-position:normal;font-variant-caps:normal;font-variant-numeric:normal;font-variant-alternates:normal;font-feature-settings:normal;text-indent:0;text-align:start;text-decoration:none;text-decoration-line:none;text-decoration-style:solid;text-decoration-color:#000000;letter-spacing:normal;word-spacing:normal;text-transform:none;writing-mode:lr-tb;direction:ltr;text-orientation:mixed;dominant-baseline:auto;baseline-shift:baseline;text-anchor:start;white-space:normal;shape-padding:0;clip-rule:nonzero;display:inline;overflow:visible;visibility:visible;opacity:1;isolation:auto;mix-blend-mode:normal;color-interpolation:sRGB;color-interpolation-filters:linearRGB;solid-color:#000000;solid-opacity:1;vector-effect:none;fill:#9f3b00;fill-opacity:1;fill-rule:nonzero;stroke:none;stroke-width:2.99981356;stroke-linecap:butt;stroke-linejoin:miter;stroke-miterlimit:4;stroke-dasharray:none;stroke-dashoffset:0;stroke-opacity:1;color-rendering:auto;image-rendering:auto;shape-rendering:auto;text-rendering:auto;enable-background:accumulate" />
      <g
         transform="translate(0.41341147,15.891537)"
         id="g4968">
        <path
           style="color:#000000;font-style:normal;font-variant:normal;font-weight:normal;font-stretch:normal;font-size:medium;line-height:normal;font-family:sans-serif;font-variant-ligatures:normal;font-variant-position:normal;font-variant-caps:normal;font-variant-numeric:normal;font-variant-alternates:normal;font-feature-settings:normal;text-indent:0;text-align:start;text-decoration:none;text-decoration-line:none;text-decoration-style:solid;text-decoration-color:#000000;letter-spacing:normal;word-spacing:normal;text-transform:none;writing-mode:lr-tb;direction:ltr;text-orientation:mixed;dominant-baseline:auto;baseline-shift:baseline;text-anchor:start;white-space:normal;shape-padding:0;clip-rule:nonzero;display:inline;overflow:visible;visibility:visible;opacity:1;isolation:auto;mix-blend-mode:normal;color-interpolation:sRGB;color-interpolation-filters:linearRGB;solid-color:#000000;solid-opacity:1;vector-effect:none;fill:#00a600;fill-opacity:1;fill-rule:nonzero;stroke:none;stroke-width:11.33790016;stroke-linecap:butt;stroke-linejoin:miter;stroke-miterlimit:4;stroke-dasharray:none;stroke-dashoffset:0;stroke-opacity:1;color-rendering:auto;image-rendering:auto;shape-rendering:auto;text-rendering:auto;enable-background:accumulate"
           d="m 394.98242,383.62109 c -10.36974,0 -18.89648,8.5287 -18.89648,18.89844 0,10.36974 8.52674,18.89844 18.89648,18.89844 3.66052,0 7.06526,-1.10629 9.97266,-2.9375 a 5.6959962,5.573363 62.886716 0 0 0.23828,-0.18359 5.6959962,5.573363 62.886716 0 0 0.40625,-0.38086 5.6959962,5.573363 62.886716 0 0 0.36719,-0.42188 5.6959962,5.573363 62.886716 0 0 0.32226,-0.45508 5.6959962,5.573363 62.886716 0 0 0.27539,-0.49023 5.6959962,5.573363 62.886716 0 0 0.22657,-0.51367 5.6959962,5.573363 62.886716 0 0 0.17187,-0.53516 5.6959962,5.573363 62.886716 0 0 0.11914,-0.55273 5.6959962,5.573363 62.886716 0 0 0.0625,-0.5625 5.6959962,5.573363 62.886716 0 1 0.002,0 5.6959962,5.573363 62.886716 0 0 0.006,-0.56641 5.6959962,5.573363 62.886716 0 0 -0.0469,-0.56641 5.6959962,5.573363 62.886716 0 0 -0.10352,-0.55859 5.6959962,5.573363 62.886716 0 0 -0.15625,-0.54688 5.6959962,5.573363 62.886716 0 0 -0.21093,-0.52734 5.6959962,5.573363 62.886716 0 1 -0.002,-0.002 5.6959962,5.573363 62.886716 0 0 -0.25976,-0.50586 5.6959962,5.573363 62.886716 0 0 -0.31055,-0.47656 5.6959962,5.573363 62.886716 0 0 -0.35156,-0.44532 5.6959962,5.573363 62.886716 0 0 -0.39453,-0.4082 5.6959962,5.573363 62.886716 0 0 -0.4336,-0.36523 5.6959962,5.573363 62.886716 0 1 -0.002,-0.002 5.6959962,5.573363 62.886716 0 0 -0.4668,-0.32031 5.6959962,5.573363 62.886716 0 0 -0.49414,-0.27344 5.6959962,5.573363 62.886716 0 0 -0.51758,-0.22265 5.6959962,5.573363 62.886716 0 0 -0.53711,-0.16797 5.6959962,5.573363 62.886716 0 0 -0.55078,-0.11524 5.6959962,5.573363 62.886716 0 0 -0.55859,-0.0566 5.6959962,5.573363 62.886716 0 0 -0.55859,-0.002 5.6959962,5.573363 62.886716 0 1 -0.002,0 5.6959962,5.573363 62.886716 0 0 -0.55664,0.0547 5.6959962,5.573363 62.886716 0 0 -0.54492,0.11133 5.6959962,5.573363 62.886716 0 0 -0.53125,0.16601 5.6959962,5.573363 62.886716 0 0 -0.51367,0.21875 5.6959962,5.573363 62.886716 0 0 -0.4043,0.22656 c -0.22846,0.12692 -0.40342,0.32652 -0.64648,0.42969 -0.92103,0.39093 -1.93496,0.61524 -3.01563,0.61523 -4.24229,0 -7.55859,-3.3163 -7.55859,-7.55859 0,-4.24229 3.3163,-7.55859 7.55859,-7.55859 4.24226,0 7.5586,3.3163 7.5586,7.55859 0,1.2789 -0.37672,2.41969 -0.91407,3.46485 l 2.34571,-1.6543 2.6875,3.85937 c 0.005,-0.0189 0.51985,-0.0494 1.17187,-0.0625 1.27166,-0.0227 1.56783,-0.066 2.24414,-0.29883 0.89836,-0.30992 1.60496,-0.76941 2.29102,-1.49414 0.56239,-0.59426 0.9032,-1.22125 1.21484,-1.98046 0.0648,-0.62348 0.29883,-1.19385 0.29883,-1.83399 0,-10.36974 -8.5287,-18.89844 -18.89844,-18.89844 z"
           id="path932-2-2"
           transform="scale(0.26458333)"
           inkscape:connector-curvature="0" />
        <path
           style="color:#000000;font-style:normal;font-variant:normal;font-weight:normal;font-stretch:normal;font-size:medium;line-height:normal;font-family:sans-serif;font-variant-ligatures:normal;font-variant-position:normal;font-variant-caps:normal;font-variant-numeric:normal;font-variant-alternates:normal;font-feature-settings:normal;text-indent:0;text-align:start;text-decoration:none;text-decoration-line:none;text-decoration-style:solid;text-decoration-color:#000000;letter-spacing:normal;word-spacing:normal;text-transform:none;writing-mode:lr-tb;direction:ltr;text-orientation:mixed;dominant-baseline:auto;baseline-shift:baseline;text-anchor:start;white-space:normal;shape-padding:0;clip-rule:nonzero;display:inline;overflow:visible;visibility:visible;opacity:1;isolation:auto;mix-blend-mode:normal;color-interpolation:sRGB;color-interpolation-filters:linearRGB;solid-color:#000000;solid-opacity:1;vector-effect:none;fill:#00a600;fill-opacity:1;fill-rule:nonzero;stroke:none;stroke-width:3;stroke-linecap:round;stroke-linejoin:miter;stroke-miterlimit:4;stroke-dasharray:none;stroke-dashoffset:0;stroke-opacity:1;color-rendering:auto;image-rendering:auto;shape-rendering:auto;text-rendering:auto;enable-background:accumulate"
           d="m 101.05273,104.99609 a 1.50015,1.50015 0 1 0 0,3 h 6.95899 a 1.50015,1.50015 0 1 0 0,-3 z"
           id="path63-9-1-1"
           inkscape:connector-curvature="0" />
        <path
           style="fill:#a64200;fill-opacity:1;stroke:#a64200;stroke-width:3.77952766;stroke-linecap:round;stroke-miterlimit:4;stroke-dasharray:none;stroke-opacity:1"
           d="m 390.04275,396.77469 c 0.0837,-0.10087 0.69094,-0.53349 1.03604,-0.73813 0.84907,-0.50348 1.79738,-0.83709 2.80603,-0.98715 0.45426,-0.0676 1.65602,-0.0758 2.09557,-0.0143 1.08216,0.15139 2.19791,0.5477 3.04688,1.08226 0.29265,0.18427 0.82278,0.57538 0.8905,0.65698 0.0347,0.0418 -0.51065,0.047 -4.93738,0.047 -4.41158,0 -4.972,-0.005 -4.93764,-0.0467 z"
           id="path4962"
           inkscape:connector-curvature="0"
           transform="scale(0.26458333)" />
      </g>
    </g>
  </g>
  <g
     inkscape:groupmode="layer"
     id="layer2"
     inkscape:label="Layer 2"
     style="display:inline"
     transform="translate(0,-87)" />
</svg>
