<?xml version="1.0" encoding="UTF-8" standalone="no"?>
<!-- Created with Inkscape (http://www.inkscape.org/) -->

<svg
   xmlns:dc="http://purl.org/dc/elements/1.1/"
   xmlns:cc="http://creativecommons.org/ns#"
   xmlns:rdf="http://www.w3.org/1999/02/22-rdf-syntax-ns#"
   xmlns:svg="http://www.w3.org/2000/svg"
   xmlns="http://www.w3.org/2000/svg"
   xmlns:sodipodi="http://sodipodi.sourceforge.net/DTD/sodipodi-0.dtd"
   xmlns:inkscape="http://www.inkscape.org/namespaces/inkscape"
   width="96px"
   height="96px"
   viewBox="0 0 96 96"
   version="1.1"
   id="SVGRoot"
   inkscape:export-filename="/home/lex/bitmap.png"
   inkscape:export-xdpi="96"
   inkscape:export-ydpi="96"
   inkscape:version="0.92.5 (2060ec1f9f, 2020-04-08)"
   sodipodi:docname="lex.svg">
  <defs
     id="defs3713" />
  <sodipodi:namedview
     id="base"
     pagecolor="#ffffff"
     bordercolor="#666666"
     borderopacity="1.0"
     inkscape:pageopacity="0.0"
     inkscape:pageshadow="2"
     inkscape:zoom="2.6666667"
     inkscape:cx="-14.25"
     inkscape:cy="48"
     inkscape:document-units="px"
     inkscape:current-layer="layer1"
     showgrid="false"
     inkscape:window-width="1920"
     inkscape:window-height="1015"
     inkscape:window-x="1920"
     inkscape:window-y="0"
     inkscape:window-maximized="1"
     inkscape:grid-bbox="true" />
  <metadata
     id="metadata3716">
    <rdf:RDF>
      <cc:Work
         rdf:about="">
        <dc:format>image/svg+xml</dc:format>
        <dc:type
           rdf:resource="http://purl.org/dc/dcmitype/StillImage" />
        <dc:title></dc:title>
      </cc:Work>
    </rdf:RDF>
  </metadata>
  <g
     inkscape:label="Layer 1"
     inkscape:groupmode="layer"
     id="layer1">
    <path
       id="path3728"
       d="m 22.350636,12.732022 c 0.004,2.552224 -0.107009,5.091637 -0.327461,7.63381 -0.418134,3.432827 -0.826204,6.865413 -1.150426,10.308946 -0.275758,3.943958 -0.731352,7.873259 -1.204109,11.797728 -0.437869,3.330189 -0.612599,6.68409 -0.702395,10.03904 0.03492,2.19749 0.103462,4.401929 0.319735,6.590184 0.122806,1.120478 0.287332,2.270255 0.826455,3.275053 0.372219,0.625419 0.986287,0.763795 1.661033,0.832677 1.486692,0.113157 2.900182,-0.527143 4.261596,-1.040778 2.227399,-0.788888 4.304174,-1.933398 6.335962,-3.126669 -1.305833,0.745077 -2.611667,1.490154 -3.9175,2.235231 0,0 5.126923,-1.987842 5.126923,-1.987842 v 0 c -1.823509,1.06763 -3.647018,2.135259 -5.470527,3.202889 -2.054903,1.163584 -4.148486,2.272891 -6.386274,3.048146 -1.449302,0.524223 -2.937539,1.123235 -4.508242,0.87024 -0.816644,-0.175642 -1.505283,-0.517029 -1.938896,-1.2687 -0.553151,-1.080489 -0.756264,-2.291673 -0.876174,-3.490301 -0.217178,-2.222351 -0.213883,-4.465143 -0.267303,-6.695597 0.110775,-3.375501 0.276098,-6.75218 0.718537,-10.103305 0.496621,-3.919024 0.985237,-7.844826 1.227839,-11.78896 0.28725,-3.434608 0.675169,-6.857627 1.094226,-10.278156 0.205118,-2.507279 0.376906,-5.013609 0.225729,-7.530838 0,0 4.951272,-2.522798 4.951272,-2.522798 z"
       inkscape:connector-curvature="0" />
    <path
       id="path3730"
       d="m 40.848134,47.585254 c 1.089933,-1.576157 2.310683,-3.055929 3.484767,-4.56909 1.269165,-1.600125 2.311422,-3.3419 3.22051,-5.165325 0.759883,-1.594365 1.328711,-3.255669 1.519525,-5.014067 2.08e-4,-0.823922 0.197045,-2.151883 -0.680002,-2.652252 -0.142241,-0.08115 -0.306316,-0.115937 -0.459474,-0.173906 -1.702769,-0.387255 -3.448857,0.0617 -5.057871,0.627204 -0.305885,0.145821 -0.618965,0.277423 -0.917657,0.437462 -0.302042,0.161834 -1.182913,0.692078 -0.882575,0.527103 1.279546,-0.702852 2.516916,-1.484078 3.820648,-2.140982 0.29918,-0.150746 -0.538717,0.399212 -0.794114,0.616018 -0.552021,0.46861 -0.873899,0.833286 -1.372656,1.355841 -1.208693,1.303641 -1.831289,2.895312 -2.179635,4.608224 -0.272704,1.784117 -0.248561,3.596454 -0.255565,5.396395 -0.105723,1.900148 0.188514,3.735981 0.806937,5.524562 0.691442,1.693801 2.151435,2.633546 3.705062,3.447221 1.971352,0.973595 4.119227,1.442284 6.28173,1.742983 1.966377,0.249481 3.941802,0.269032 5.904877,0.0039 0.641291,-0.13879 1.003911,-0.196614 1.623782,-0.412222 1.942692,-0.675719 6.316448,-3.332173 -1.562642,1.158875 1.3037,-0.776771 2.374211,-1.860029 3.562464,-2.78849 0.299024,-0.215954 0.58679,-0.446607 0.872334,-0.679848 0,0 5.15917,-2.149492 5.15917,-2.149492 v 0 c -0.246736,0.316058 -0.555306,0.545621 -0.875603,0.787471 -1.266262,0.857371 -2.296348,2.013397 -3.582337,2.849708 -3.078715,1.778592 -6.023493,3.990298 -9.611893,4.519779 -1.989593,0.192009 -3.985817,0.145434 -5.966857,-0.137616 -2.205062,-0.352863 -4.392332,-0.870415 -6.394965,-1.892604 -1.659499,-0.902558 -3.193564,-1.971153 -3.938027,-3.785556 -0.642833,-1.842754 -0.96575,-3.739136 -0.869883,-5.69954 -0.0049,-1.824979 -0.04867,-3.660758 0.183778,-5.474801 0.312475,-1.78932 0.878508,-3.487767 2.071726,-4.899465 0.405244,-0.446148 0.907398,-1.017752 1.349247,-1.42849 2.329935,-2.165886 5.313473,-3.557342 8.197254,-4.847722 1.732172,-0.5134 3.588044,-0.932302 5.352395,-0.321824 0.187228,0.105776 0.391082,0.186417 0.561684,0.317329 0.943279,0.723827 0.904402,2.042131 0.886327,3.105296 -0.137646,1.826367 -0.699758,3.550395 -1.464006,5.210632 -0.899236,1.851584 -1.894338,3.64295 -3.174685,5.264886 -1.148842,1.497405 -2.368193,2.944124 -3.43176,4.50451 0,0 -5.09201,2.227925 -5.09201,2.227925 z"
       inkscape:connector-curvature="0" />
    <path
       id="path3732"
       d="m 71.699833,30.857169 c 1.595043,1.977734 3.715532,3.443657 5.708326,4.990399 2.048129,1.442768 4.098206,2.906848 6.273549,4.153999 1.248041,0.713508 2.574348,1.286444 3.904499,1.828637 0.796523,0.209835 1.503751,0.6343 2.264778,0.928999 0.312391,0.05909 0.586004,0.220894 0.876107,0.34252 0,0 -4.645822,3.097631 -4.645822,3.097631 v 0 c -0.286566,-0.123881 -0.575606,-0.240258 -0.87028,-0.343891 -0.739575,-0.335646 -1.473364,-0.67934 -2.242922,-0.945041 -1.323288,-0.582585 -2.650701,-1.171344 -3.885854,-1.927938 -2.155764,-1.306532 -4.220379,-2.766754 -6.26044,-4.24532 -2.036541,-1.587287 -4.181336,-3.086283 -5.893617,-5.036917 0,0 4.771676,-2.843078 4.771676,-2.843078 z"
       inkscape:connector-curvature="0" />
    <path
       id="path3734"
       d="m 88.287571,28.860193 c -0.323952,1.953008 -0.670987,3.893777 -1.15768,5.814158 -0.650643,2.182655 -1.340264,4.35188 -1.929152,6.552762 -0.716391,2.819944 -1.686935,5.568424 -2.673784,8.302998 -0.980373,2.66819 -1.954641,5.339548 -2.98265,7.989807 -0.922701,2.438186 -2.066823,4.784847 -3.344355,7.054814 -1.10229,2.129715 -2.676645,3.90439 -4.456034,5.485334 -3.191331,2.498876 -6.758309,4.54421 -10.493343,6.119258 -2.214783,1.069305 -4.533352,1.900873 -6.846087,2.728866 -2.676488,1.011549 -5.384927,1.935885 -8.093933,2.855861 -1.982913,0.69279 -3.956466,1.42332 -5.98372,1.977609 -1.081463,0.448076 -2.242439,0.55427 -3.374742,0.788801 -0.933329,0.134286 -1.781459,0.557287 -2.673352,0.835052 -0.49954,0.145712 -1.017356,0.195945 -1.532578,0.249482 0,0 4.473126,-3.333675 4.473126,-3.333675 v 0 c 0.493726,-0.06969 0.984399,-0.160423 1.455146,-0.330632 0.885955,-0.314905 1.77186,-0.636821 2.70876,-0.768336 1.124204,-0.194319 2.233325,-0.433155 3.315587,-0.803473 1.993697,-0.573482 3.94609,-1.27882 5.906474,-1.955093 2.706493,-0.917803 5.409643,-1.846894 8.082038,-2.860698 2.315113,-0.848864 4.626293,-1.713935 6.853721,-2.777215 1.949549,-0.866767 5.125463,-2.741968 -1.69364,1.227546 -0.321962,0.18742 0.643429,-0.375938 0.958956,-0.574 1.000497,-0.628031 0.932994,-0.610037 1.871171,-1.324482 1.807156,-1.511655 3.430151,-3.217996 4.54157,-5.319588 1.298775,-2.244251 2.463748,-4.568316 3.394517,-6.991207 1.050293,-2.643503 2.000703,-5.326384 3.008096,-7.986507 0.993073,-2.709856 1.944633,-5.442001 2.658664,-8.240506 0.566707,-2.202264 1.217201,-4.378242 1.91385,-6.542226 0.492365,-1.892779 0.886393,-3.800332 1.088806,-5.747967 0,0 5.004568,-2.426743 5.004568,-2.426743 z"
       inkscape:connector-curvature="0"
       inkscape:export-xdpi="96"
       inkscape:export-ydpi="96" />
  </g>
</svg>
